<svg xmlns="http://www.w3.org/2000/svg" width="303.24" height="68.04" viewBox="0 0 303.24 68.04">
  <g id="canis_horiz" transform="translate(-132.98 -181.53)">
    <path id="Path_1" data-name="Path 1" d="M168.93,189.9l8.15,3.1,14.43-11.47h0l.13,31.21-.45.41-3.72-4.34,3-22.3-28.31,31.38-28-31.07,3,22.31-3.55,4.14-.58-.53.13-31.13,14.42,11.47,8.25-3.14,6.53,2.42Zm4.41,42h0l-5.61-7.52,2.66-2.86,4.33-.12,3.73-3.21,6.64,1.18-10.2,25.91Zm.2-16.53-6.94,7.45-2.28-3L179,203.52l5.56,6.09v.07l4.61,5.38-2.78,2.56Zm-22.06,16-1.67,14L139.54,219.3l6.19-1.1,3.67,3.16,4.66.13,2.76,3-5.21,6.91Zm-.55-16-12.63,2.25-2.62-2.41,3.88-4.52,6.16-6.77L160.21,220l-2.23,3Zm-17.8-33.78v-.05M133,225.3l4.11-4.51,6.45,16.38a22.77,22.77,0,0,0-10.38-7.3l-.2-.2Zm30.38,24.27.63-7.45,6.44-1.46-3.22-4.29-4.85.08-4.84-.08-3.22,4.29,6.44,1.46.63,7.45h-8.62l-.47-.48,1.94-16.36,8.16-10.87,8.23,10.94L172.5,249l-.55.56Zm28.41-20a22.66,22.66,0,0,0-10.08,6.31l6-15.13,4.11,4.51v4.37Z" fill="#3b3a36"/>
    <path id="Path_2" data-name="Path 2" d="M236.59,232.5a18.89,18.89,0,0,1-19.19-19.25v-.1a19,19,0,0,1,19.51-19.35c7.06,0,11.28,2.35,14.76,5.77l-5.24,6c-2.89-2.62-5.83-4.22-9.57-4.22-6.31,0-10.85,5.24-10.85,11.65v.11c0,6.41,4.43,11.76,10.85,11.76,4.28,0,6.89-1.71,9.83-4.39l5.24,5.3a19.14,19.14,0,0,1-15.34,6.68" fill="#3b3a36"/>
    <path id="Path_3" data-name="Path 3" d="M297.49,231.86l-3.42-8.4H278.25l-3.42,8.4h-8.4l16-37.69h7.59l16,37.69Zm-11.33-27.8-5,12.13h9.94Z" fill="#3b3a36"/>
    <path id="Path_4" data-name="Path 4" d="M348.5,231.86l-18.12-23.79v23.79h-8.12V194.44h7.59l17.53,23.04V194.44h8.13v37.42Z" fill="#3b3a36"/>
    <rect id="Rectangle_1" data-name="Rectangle 1" width="8.23" height="37.42" transform="translate(378.22 194.44)" fill="#3b3a36"/>
    <path id="Path_5" data-name="Path 5" d="M422.48,232.39a23.85,23.85,0,0,1-15.88-6l4.87-5.83c3.37,2.78,6.89,4.54,11.17,4.54,3.37,0,5.4-1.33,5.4-3.53v-.1c0-2.09-1.28-3.16-7.54-4.76-7.54-1.92-12.4-4-12.4-11.44v-.11c0-6.79,5.45-11.28,13.1-11.28a21.72,21.72,0,0,1,13.9,4.76l-4.28,6.2c-3.32-2.3-6.58-3.69-9.73-3.69s-4.81,1.45-4.81,3.27v.1c0,2.46,1.6,3.26,8.07,4.92,7.59,2,11.87,4.7,11.87,11.23v.1c0,7.43-5.67,11.6-13.74,11.6" fill="#3b3a36"/>
  </g>
</svg>
